<!DOCTYPE svg PUBLIC "-//W3C//DTD SVG 1.1//EN" "http://www.w3.org/Graphics/SVG/1.1/DTD/svg11.dtd">
<!-- Uploaded to: SVG Repo, www.svgrepo.com, Transformed by: SVG Repo Mixer Tools -->
<svg width="800px" height="800px" viewBox="0 0 24.00 24.00" fill="none" xmlns="http://www.w3.org/2000/svg" stroke="#2091F6" transform="rotate(0)matrix(1, 0, 0, 1, 0, 0)" stroke-width="0.00024000000000000003">
<g id="SVGRepo_bgCarrier" stroke-width="0"/>
<g id="SVGRepo_tracerCarrier" stroke-linecap="round" stroke-linejoin="round" stroke="#CCCCCC" stroke-width="0.144"/>
<g id="SVGRepo_iconCarrier"> <path d="M5.08884 14.7055C5.26942 14.2784 5.69482 14 6.16669 14H9V3C9 2.44772 9.44772 2 10 2H14C14.5523 2 15 2.44772 15 3V14H17.8333C18.3052 14 18.7306 14.2784 18.9112 14.7055C19.0917 15.1326 18.9919 15.6241 18.6583 15.951L12.825 21.6653C12.3693 22.1116 11.6307 22.1116 11.175 21.6653L5.34174 15.951C5.00808 15.6241 4.90826 15.1326 5.08884 14.7055Z" fill="#2091F6"/> </g>
</svg>